<?xml version="1.0" encoding="UTF-8"?><svg id="Layer_2" xmlns="http://www.w3.org/2000/svg" viewBox="0 0 148.6236 35.9244"><defs><style>.cls-1{fill:#fff;}</style></defs><g id="Layer_1-2"><path class="cls-1" d="m56.0781,15.8175c-.4036-1.5826-.9933-4.7173-4.376-4.7173-1.769,0-3.1035,1.1793-3.1035,3.1035,0,4.7797,9.9311,4.4692,9.9311,11.1107,0,4.4069-3.9104,6.0207-7.6344,6.0207-2.7003,0-4.4689-.714-5.4622-1.2417-.7449-1.955-.9001-3.3516-.9001-5.8343l1.4589-.3104c.4345,1.8622,1.4582,6.207,5.4306,6.207,1.9554,0,3.2591-1.3657,3.2591-3.4448,0-5.2449-9.621-4.8413-9.621-11.2036,0-3.9412,2.9171-5.5862,6.9207-5.5862,2.3275,0,3.724.4965,4.8725,1.1481.2481,1.5206.3413,3.1655.3413,4.7481h-1.117Z"/><path class="cls-1" d="m71.0553,29.7522c-.9313.5585-2.3895,1.5829-4.7173,1.5829-4.8105,0-5.0277-2.7931-5.0277-6.2379v-4.5001c0-1.0861,0-2.4827-.9309-2.4827-.4656,0-.8689.1549-.9933.186v-.9001c2.3278-.7757,4.0348-1.0241,5.6486-1.117v8.7206c0,2.4518.4653,4.5309,3.5068,4.5309,1.1793,0,1.893-.5585,2.3275-.7757v-8.1621c0-1.0861,0-2.4827-.9309-2.4827-.4656,0-.8689.1549-.9933.186v-.9001c2.3278-.7757,4.0348-1.0241,5.6486-1.117v9.279c0,2.545,0,3.7552,1.0553,3.7552.186,0,.5585.0308.8689-.0308l.062.8065c-1.4277.4968-3.1347.9313-4.6861,1.2417l-.8381-1.5829Z"/><path class="cls-1" d="m79.5516,20.5972c0-1.0861,0-2.4827-.9309-2.4827-.4656,0-.8693.1549-.9933.186v-.9001c2.3278-.7757,3.9724-1.0241,5.5862-1.117v1.7998c.7761-.6829,2.2655-1.7998,4.9037-1.7998,2.7931,0,4.6861,1.3342,4.6861,5.5238v6.1138c0,1.6446.1552,1.9862,1.2722,2.0794l.652.062v.8069h-7.5724v-.8069l.6517-.062c1.1173-.0932,1.2725-.4348,1.2725-2.0794v-4.4069c0-2.4518,0-5.431-3.2276-5.431-1.2725,0-2.0794.6517-2.5759,1.1793v8.6585c0,1.6446.1549,1.9862,1.2722,2.0794l.652.062v.8069h-7.5104v-.8069l.6517-.062c1.0553-.0932,1.2102-.4348,1.2102-2.0794v-7.324Z"/><path class="cls-1" d="m100.3743,30.0626l.7445-.0932c1.4589-.2792,1.4589-.1549,1.4589-3.6928v-11.3896c0-3.0107,0-3.3831-1.4589-3.6003l-.7445-.0932v-.8065h8.4413v.8065l-.7449.0932c-1.4586.2172-1.4586.5897-1.4586,3.6003v14.3688c.9309.2172,1.893.4345,2.8551.4345,4.376,0,4.4069-2.1102,5.307-4.6861l1.1173.2172c-.1864,2.0174-.4036,3.662-1.0861,5.6482h-14.4311v-.8069Z"/><path class="cls-1" d="m116.6105,30.0626l.6517-.062c1.1173-.1244,1.2725-.4348,1.2725-2.0794v-7.324c0-1.0861,0-2.4827-.9313-2.4827-.4653,0-.8689.1549-.9929.186v-.9001c2.3278-.7757,4.0348-1.0241,5.6486-1.117v11.6377c0,1.6446.1549,1.955,1.2722,2.0794l.652.062v.8069h-7.5728v-.8069Zm1.3966-18.5588c0-1.1793.9313-2.1414,2.1723-2.1414,1.1793,0,2.1726.9621,2.1726,2.1414,0,1.3034-.9933,2.2038-2.1726,2.2038-1.241,0-2.1723-.9313-2.1723-2.2038Z"/><path class="cls-1" d="m127.3249,16.7488c0-4.3137,2.1414-8.6897,7.0143-8.6897,1.6446,0,2.6999.4968,3.3824,1.0241-.2172.9621-.4653,1.5518-1.2413,2.3275h-.2172c-.5897-.5585-2.017-1.7998-3.2276-1.7998-1.8622,0-1.9862,2.5139-1.9862,5.369v1.769c.9313.0308,2.8239.1552,3.8484.2792v.8069c-1.3345.1552-2.545.2484-3.8484.3104v9.7759c0,1.6446.1552,1.9862,1.3034,2.0794l1.2417.062v.8069h-8.1933v-.8069l.6205-.062c1.1485-.1244,1.3034-.4348,1.3034-2.0794v-11.1724Z"/><path class="cls-1" d="m148.5307,29.3485c-.8072.652-2.7623,1.9866-5.8966,1.9866-3.662,0-7.2623-2.3278-7.2623-7.3244,0-4.9342,3.5688-7.7273,7.1068-7.7273,4.9969,0,5.8034,3.2584,6.145,5.0586-2.6687,1.241-6.1138,2.2343-9.3414,2.9791.3416,1.8622,1.2725,5.2138,5.5242,5.2138,1.6758,0,2.9795-.6825,3.4139-.8997l.3104.7133Zm-3.6312-7.8205c-.2172-2.2343-1.1485-4.0656-3.1035-4.0656-2.6999,0-2.6999,4.8417-2.6999,5.4002,1.955-.3104,3.9101-.714,5.8034-1.3345Z"/><path class="cls-1" d="m20.0172,2.8234c-.0587-.533-.0836-1.0758-.0319-1.6172.0245-.257.0661-.5133.1299-.7646.0146-.0574.0367-.1699.0659-.2861.0265-.1053-.083-.183-.1642-.1161-.7273.5993-1.3826,1.4012-1.8653,2.2202-.3981.6756-.6859,1.4433-.7621,2.2289.9832.1185,1.9498.3299,2.8881.6284.0438-.7776-.177-1.5344-.2604-2.2936Z"/><path class="cls-1" d="m13.0771,4.5676c.882-.1401,1.766-.2001,2.6437-.1888-.0196-.1191-.043-.2374-.0738-.3541-.0989-.3742-.3287-.7152-.4859-1.0667-.1742-.3894-.3321-.7883-.4551-1.2013-.0912-.3063-.1685-.6239-.2054-.9444-.0204-.1778-.0287-.3573-.0249-.5366.0007-.0342-.0016-.0988-.002-.1707-.0006-.0968-.1106-.1424-.1675-.0682-.4562.5959-.7704,1.3173-1.0057,2.055-.1602.5024-.2898,1.0377-.31,1.5742-.0089.2371.0035.4744.0441.7092.0113.0651.0271.1287.0424.1923Z"/><path class="cls-1" d="m8.867,5.6796c.0244.0515.0523.1005.0796.1499.0864-.0399.1704-.0829.2578-.1215.6412-.2824,1.2917-.5136,1.9465-.7048-.0401-.0836-.0834-.1657-.1302-.2457-.1738-.2969-.4518-.5343-.6701-.7979-.2419-.2919-.4722-.596-.6757-.9203-.1511-.2406-.2929-.4941-.4008-.7599-.0598-.1474-.1097-.2992-.149-.4536-.0075-.0295-.0249-.0843-.0424-.1458-.0235-.0828-.1287-.0956-.1597-.0185-.2488.619-.3461,1.3116-.372,1.9994-.0176.4685-.001.9578.1094,1.422.0488.2051.116.4054.2066.5969Z"/><path class="cls-1" d="m25.2984,7.7913c.9158.7278,1.7572,1.5616,2.5011,2.4967.5577-.7364.8496-1.6251,1.2762-2.4252.3027-.5678.6453-1.1225,1.0629-1.624.1982-.238.413-.4639.6463-.6698.0533-.047.1513-.1435.2589-.2388.0975-.0863.0415-.2375-.0842-.2262-1.1263.1016-2.3183.4527-3.3509.9375-.8738.4103-1.698.9956-2.3103,1.7498Z"/><path class="cls-1" d="m29.885,13.7409c.0814.1846.1549.3707.2286.5567.8239-.6202,1.3871-1.4981,2.0739-2.238.4742-.5109.9867-.997,1.5629-1.4067.2736-.1944.561-.3716.8623-.5226.0688-.0345.1982-.1084.3373-.1784.126-.0634.1092-.2372-.0255-.2602-1.2077-.2055-2.5535-.1678-3.7693.0541-1.0184.186-2.0339.5639-2.8789,1.1732.6202.8663,1.1621,1.808,1.6086,2.8217Z"/><path class="cls-1" d="m24.9305,4.6628c.1167-.5782.272-1.1554.507-1.7054.1116-.2611.2408-.5159.3917-.7579.0344-.0553.0952-.1659.1647-.2777.063-.1014-.0259-.2195-.1333-.1766-.9625.3849-1.9172,1.0064-2.6967,1.7035-.662.5919-1.2335,1.3254-1.5727,2.152.9967.4176,1.9517.9356,2.8464,1.5517.3052-.8.3268-1.6664.493-2.4895Z"/><path class="cls-1" d="m33.7986,20.0133c-.8134-.3252-1.7111-.5115-2.5909-.4552.0351,1.0959-.0425,2.1852-.2328,3.2506.8807-.0675,1.6877-.4496,2.5219-.673.5698-.1526,1.1559-.2702,1.753-.3043.2836-.0162.5691-.0137.8531.0137.0648.0063.1908.0115.322.024.1188.0113.1851-.1208.0989-.1979-.7729-.6909-1.754-1.2696-2.7251-1.6578Z"/><path class="cls-1" d="m36.6227,15.6339c-1.0172-.4941-2.2194-.8084-3.3542-.9258-.9631-.0997-1.9741-.0226-2.8898.31.39,1.1436.6406,2.3057.7583,3.4674.9055-.3334,1.6389-.9763,2.4485-1.4604.5522-.3302,1.132-.6286,1.7484-.8427.2926-.1017.593-.1844.8991-.2403.0699-.0128.2037-.0449.345-.071.1281-.0237.1582-.182.0446-.2372Z"/><path class="cls-1" d="m25.8585,31.8759c-.5874.5134-1.2179.9874-1.8901,1.4152.4427.4454,1.0171.7173,1.5187,1.0738.3496.2485.6873.5223.9833.8411.1405.1514.2716.3125.3879.4843.0265.0392.082.1123.1358.1915.0488.0718.1535.0477.1568-.0364.0287-.7534-.1019-1.5715-.3346-2.2956-.1966-.6117-.5125-1.2055-.9577-1.6742Z"/><path class="cls-1" d="m28.8379,28.3686c-.468.7518-1.0032,1.4643-1.5975,2.1321.6304.3394,1.3478.4378,2.0141.6546.4589.1494.9134.33,1.3382.5729.2018.1153.3966.2443.5791.3897.0417.0333.1257.093.2102.1601.0765.0607.1808-.0004.156-.0917-.2221-.8186-.6371-1.6531-1.1301-2.3524-.4121-.5845-.9432-1.1117-1.5701-1.4654Z"/><path class="cls-1" d="m32.8112,25.2111c-.6219-.4979-1.3538-.8972-2.1342-1.0806-.2568.9545-.6031,1.8823-1.0334,2.7715.7753.1653,1.5687.0498,2.3443.0755.5359.0178,1.0768.0702,1.6053.1983.2509.0608.4988.1384.7384.2373.0548.0225.163.0605.2738.1059.1004.0412.1929-.0562.1382-.1461-.4897-.8052-1.1903-1.5677-1.9324-2.1619Z"/><path class="cls-1" d="m12.5059,32.7688c-2.5347.3116-4.87.0777-6.7446-.6829.823.6692,1.7135,1.2572,2.6618,1.7491,2.2637,1.1743,4.8468,1.8105,7.5765,1.7388,1.1631-.0306,2.2915-.1918,3.3756-.4621-1.8279-.2021-3.5741-.7025-5.193-1.4537-.5751-.2669-1.1355-.562-1.6764-.8892Z"/><path class="cls-1" d="m26.1646,26.3493s.0778-.1091-.0053-.1974c-.073-.0776-.1848.0073-.1848.0073-1.5152,1.4852-3.3527,2.8531-5.46,3.9839-.4014.2154-.8045.415-1.2081.6049-1.7656.8308-3.5439,1.4212-5.2593,1.7706.5084.289,1.0323.5528,1.5704.7909,1.5934.7048,3.3091,1.1809,5.1066,1.4019.7104-.2476,1.3972-.5442,2.0559-.8871-.9622-.7198-1.8663-1.4966-2.7151-2.3178,2.6248-1.4136,4.7213-3.235,6.0996-5.1571Z"/><path class="cls-1" d="m1.7249,23.4252c.1194.066.2429.1284.3706.1873.4702.2169.9975.3843,1.5705.5057.4832.1024.9993.1711,1.5445.2055-.2244-.5276-.4248-1.0668-.5989-1.6167-.2696-.8517-.476-1.7283-.6158-2.6233-.0468-.2998-.0856-.6018-.117-.9055-.0263-.2542-.0499-.5091-.0651-.7658-.008-.1349-.0089-.2692-.0139-.4039-.0191-.5142-.0193-1.0266.0044-1.5359-.6103-.0836-1.1422-.2378-1.5785-.4628-.056-.0289-.1089-.0599-.1617-.0911-.2762-.1634-.5131-.3549-.6937-.5828-.097-.1225-.1803-.2538-.2471-.395-.0616-.1302-.1065-.2663-.1394-.4064-.2296.6143-.4239,1.2454-.5753,1.8928-.0603.258-.1148.5182-.1621.7809-.0944.5243-.1634,1.0572-.2039,1.5978-.0096.1292-.0129.26-.0194.39-.0198.3976-.0297.7977-.019,1.2022.0137.5191.0538,1.0313.1167,1.5361.3713.6134.9161,1.1108,1.6039,1.4909Z"/><path class="cls-1" d="m6.2752,16.4746c-.4057.0438-.792.064-1.1645.0687.0002.362.0081.7253.0285,1.0905.0002.0046.0002.0091.0004.0137.0068.1211.0202.2391.0291.3593.0152.2054.0287.4116.0497.6143.1004.9708.2689,1.9086.4969,2.8124.2554,1.0129.5867,1.9819.9888,2.9017,2.0665-.0884,4.4251-.5932,6.8613-1.5173-.97-1.7615-1.7919-3.5314-2.486-5.2317-.1246-.3052-.2447-.6079-.3612-.9081.4517-.1798.9051-.3709,1.3596-.5864,2.8498-1.3512,5.1199-3.1267,6.4162-4.8489.0864-.1148.1612-.2287.2389-.3429,0,0,.0841-.1217-.0093-.2118-.0898-.0867-.1984.0041-.1984.0041-.2481.2423-.5079.4842-.7903.7241-1.3109,1.1139-2.9758,2.1878-4.8804,3.0882-.8643.4086-1.7228.7498-2.5635,1.0368-.8372.2858-1.6547.5147-2.4356.6786-.5463.1147-1.075.2001-1.5801.2546Z"/><path class="cls-1" d="m2.1649,14.3367c.2322.2149.5216.3913.8644.5279.097.0386.1985.0735.3034.1059.1842.0569.3801.104.5874.1418.0287-.2378.0624-.4745.1001-.7103.0302-.1889.0601-.3777.0959-.5652.1192-.6228.2711-1.2369.451-1.8415.3805-1.2789.8931-2.5113,1.524-3.6767.1729-.3193.3515-.6354.5419-.9441.0545-.0884.1135-.174.1694-.2615-.4639.3173-.9105.6573-1.3363,1.0214-.65.5558-1.2527,1.164-1.8032,1.8177-.8278.983-1.5346,2.0692-2.1012,3.2355.0265.1956.0704.3855.1538.5618.1056.2233.263.415.4494.5874Z"/><path class="cls-1" d="m5.4827,12.714c-.0453.2303-.0838.4626-.1211.6953-.0958.5985-.164,1.2043-.2046,1.8164.892.0114,1.9021-.0986,2.99-.3374.5648-.124,1.1499-.2825,1.7473-.473-.0694-.2038-.1371-.4056-.2027-.6052-.2838-.8633-.5325-1.6853-.7492-2.4531-.0754-.2671-.147-.5274-.2148-.7807-.1154-.4307-.2201-.8406-.3148-1.227-.1868-.7627-.3351-1.434-.4494-1.9908-.0503-.2451-.0939-.4671-.1317-.6662-.0095-.0501-.0186-.0985-.0274-.1455-.0448.0775-.0901.1546-.1339.2327-.1758.3136-.3415.6331-.5008.9563-.5075,1.0303-.932,2.1061-1.2587,3.2198-.1692.5768-.3114,1.1637-.4284,1.7584Z"/><path class="cls-1" d="m10.9916,31.7395c-1.6702-1.2633-3.1159-2.8215-4.2674-4.5865-.2916-.447-.5648-.9064-.8171-1.3787-1.0556-.0098-2.0192-.1348-2.8593-.3755-.4582-.1313-.8804-.2961-1.26-.496-.1165-.0614-.2284-.1265-.3369-.1943-.3639-.2276-.6815-.4915-.9476-.7919.1945.7495.4428,1.4762.7411,2.1765.0483.1134.0938.2284.1447.3404.1732.3811.3647.7517.5669,1.1155.1796.3232.3684.6403.5697.9487.3446.528.7219,1.0321,1.1259,1.5128,1.678,1.3583,4.2978,1.9429,7.3399,1.7289Z"/><path class="cls-1" d="m16.4521,23.0384c-.7368.3619-1.4729.6865-2.2032.9766-2.4217.962-4.7763,1.5285-6.867,1.7019.2468.454.5128.8926.7946,1.3178,1.1837,1.7856,2.6664,3.3115,4.3746,4.5291,1.8899-.2875,3.8978-.8586,5.9159-1.7238-1.327-1.4896-2.5016-3.0816-3.5371-4.7129.4106-.1803.821-.3713,1.2301-.5756,3.7295-1.8623,6.6002-4.3476,8.1717-6.8062,0,0,.0828-.1145-.0107-.208s-.1999-.0026-.1999-.0026c-1.8888,2.0135-4.5299,3.9618-7.6691,5.5037Z"/></g></svg>